# This file uses centimeters as units for non-parametric coordinates.

mtllib Pillar.mtl
g default
v -18.331120 1.642041 18.331120
v 18.331120 1.642041 18.331120
v -18.331120 309.631470 18.331120
v 18.331120 309.631470 18.331120
v -18.331120 309.631470 -18.331120
v 18.331120 309.631470 -18.331120
v -18.331120 1.642041 -18.331120
v 18.331120 1.642041 -18.331120
vt 0.009226 0.509027
vt 0.009226 0.007324
vt 0.126293 0.857866
vt 0.990774 0.461184
vt 0.007324 0.281387
vt 0.007324 0.973031
vt 0.617757 0.867185
vt 0.992676 0.180296
vt 0.500690 0.865283
vt 0.498788 0.982350
vt 0.009226 0.328141
vt 0.992676 0.344117
vt 0.007324 0.626094
vt 0.990774 0.642070
vt 0.990774 0.140368
vt 0.124391 0.974933
vt 0.007324 0.445208
vt 0.992676 0.023301
vt 0.007324 0.124391
vt 0.992676 0.525003
vt 0.990774 0.297363
vt 0.615855 0.984252
vt 0.009226 0.855964
vt 0.009226 0.164319
vn 0.000000 0.000000 1.000000
vn 0.000000 0.000000 1.000000
vn 0.000000 0.000000 1.000000
vn 0.000000 0.000000 1.000000
vn 0.000000 1.000000 0.000000
vn 0.000000 1.000000 0.000000
vn 0.000000 1.000000 0.000000
vn 0.000000 1.000000 0.000000
vn 0.000000 0.000000 -1.000000
vn 0.000000 0.000000 -1.000000
vn 0.000000 0.000000 -1.000000
vn 0.000000 0.000000 -1.000000
vn 0.000000 -1.000000 0.000000
vn 0.000000 -1.000000 0.000000
vn 0.000000 -1.000000 0.000000
vn 0.000000 -1.000000 0.000000
vn 1.000000 0.000000 0.000000
vn 1.000000 0.000000 0.000000
vn 1.000000 0.000000 0.000000
vn 1.000000 0.000000 0.000000
vn -1.000000 0.000000 0.000000
vn -1.000000 0.000000 0.000000
vn -1.000000 0.000000 0.000000
vn -1.000000 0.000000 0.000000
s off
g pCube1
usemtl initialShadingGroup
f 1/19/1 2/2/2 4/18/3 3/15/4
f 3/3/5 4/16/6 6/6/7 5/23/8
f 5/5/9 6/24/10 8/8/11 7/21/12
f 7/7/13 8/22/14 2/10/15 1/9/16
f 2/17/17 8/11/18 6/12/19 4/4/20
f 7/13/21 1/1/22 3/20/23 5/14/24
